<svg width="26" height="26" viewBox="0 0 26 26" fill="none" xmlns="http://www.w3.org/2000/svg">
<circle cx="12.8706" cy="13.3672" r="12.5" fill="#E8E8E8"/>
<path fill-rule="evenodd" clip-rule="evenodd" d="M18.0221 7.93261C18.2793 7.67768 18.6265 7.53421 18.9886 7.53321C19.3507 7.53221 19.6987 7.67377 19.9572 7.92727C20.2158 8.18078 20.3642 8.52587 20.3704 8.88794C20.3766 9.25 20.24 9.59995 19.9902 9.86212L12.6544 19.0319C12.5283 19.1677 12.3762 19.2766 12.207 19.3523C12.0379 19.4279 11.8552 19.4687 11.6699 19.4721C11.4846 19.4756 11.3006 19.4416 11.1287 19.3723C10.9569 19.3029 10.8008 19.1997 10.6698 19.0686L5.80926 14.2063C5.67385 14.0801 5.56525 13.9279 5.48992 13.7589C5.41459 13.5898 5.37409 13.4073 5.37082 13.2223C5.36755 13.0372 5.4016 12.8534 5.47091 12.6818C5.54023 12.5102 5.6434 12.3543 5.77428 12.2234C5.90515 12.0925 6.06104 11.9894 6.23266 11.92C6.40427 11.8507 6.58808 11.8167 6.77314 11.8199C6.95819 11.8232 7.14069 11.8637 7.30975 11.939C7.47881 12.0144 7.63097 12.123 7.75714 12.2584L11.6051 16.1045L17.9872 7.97304C17.9986 7.95881 18.0109 7.9453 18.024 7.93261H18.0221Z" fill="#323751"/>
</svg>
