<svg width="23" height="23" viewBox="0 0 23 23" fill="none" xmlns="http://www.w3.org/2000/svg">
<path d="M18.616 12.0241L17.8442 11.2614L22.0708 5.45403C22.2734 5.20404 22.3794 4.89107 22.3701 4.57096C22.3608 4.25084 22.2367 3.94441 22.02 3.70632L19.4966 1.21506C19.254 0.998756 18.941 0.875486 18.6143 0.867592C18.2877 0.859697 17.969 0.967699 17.716 1.17203L11.9095 5.38709L11.1377 4.6268C11.0028 4.49271 10.8424 4.38629 10.6657 4.31368C10.489 4.24106 10.2996 4.20368 10.1083 4.20368C9.91691 4.20368 9.72745 4.24106 9.55078 4.31368C9.37411 4.38629 9.21371 4.49271 9.07881 4.6268C8.94348 4.76007 8.8361 4.91843 8.76284 5.0928C8.68957 5.26716 8.65186 5.45411 8.65186 5.64291C8.65186 5.83171 8.68957 6.01865 8.76284 6.19302C8.8361 6.36739 8.94348 6.52575 9.07881 6.65902L16.5789 14.0706C16.7138 14.2047 16.8742 14.3111 17.0508 14.3838C17.2275 14.4564 17.417 14.4938 17.6083 14.4938C17.7996 14.4938 17.9891 14.4564 18.1658 14.3838C18.3424 14.3111 18.5028 14.2047 18.6377 14.0706C18.7738 13.9357 18.8814 13.7753 18.9541 13.5988C19.0268 13.4224 19.0632 13.2334 19.0612 13.0428C19.0591 12.8523 19.0187 12.6641 18.9423 12.4892C18.8658 12.3143 18.7549 12.1562 18.616 12.0241Z" fill="#5F82A6" stroke="#323751" stroke-width="0.8" stroke-linecap="round" stroke-linejoin="round"/>
<path d="M11.4352 9L1.37061 21.8675L14.2852 11.8164" fill="#323751"/>
<path d="M11.4352 9L1.37061 21.8675L14.2852 11.8164" stroke="#323751" stroke-width="0.8" stroke-linecap="round" stroke-linejoin="round"/>
<path d="M11.9263 5.4043L17.9771 11.3838" stroke="#323751" stroke-width="0.8" stroke-linecap="round" stroke-linejoin="round"/>
</svg>
