<svg width="59" height="59" viewBox="0 0 59 59" fill="none" xmlns="http://www.w3.org/2000/svg">
<g filter="url(#filter0_d)">
<circle cx="29.3706" cy="27.8672" r="25" fill="white"/>
</g>
<path d="M43.3706 42.7935V46.1776C43.3706 46.5586 43.0451 46.8672 42.6433 46.8672H16.0979C15.6961 46.8672 15.3706 46.5586 15.3706 46.1776V42.7935C15.3706 39.2431 18.4061 36.3667 22.1515 36.3659C23.4751 36.365 24.6406 35.7194 25.3115 34.7402C25.9855 33.7581 25.916 32.904 25.916 32.2138L25.9297 32.1819C22.6661 30.901 20.3706 27.8522 20.3706 24.2949V24.0251C19.0747 24.0251 18.0979 23.0541 18.0979 21.9099V18.3275C18.0688 17.0803 18.1288 12.6817 21.4797 9.6191C25.376 6.05833 31.5506 6.34967 36.0233 8.25461C36.1688 8.31667 36.1642 8.51406 36.0169 8.57182L34.8506 9.02693C34.676 9.09503 34.7133 9.33896 34.9006 9.35793L35.4669 9.41568C38.1788 9.69065 40.6979 11.087 42.2597 13.4109C42.3015 13.4738 42.2897 13.5695 42.236 13.6238C41.2724 14.5901 40.7342 15.8727 40.7342 17.2061V21.9099C40.7342 23.0778 39.7351 24.0251 38.5033 24.0251H38.3706V24.2949C38.3706 27.8522 36.0751 30.901 32.8115 32.1819L32.8251 32.2138C32.8251 32.8841 32.75 33.7498 33.4297 34.7402C34.1006 35.7194 35.266 36.365 36.5897 36.3659C40.3351 36.3667 43.3706 39.2431 43.3706 42.7935Z" fill="#BE8F55"/>
<path d="M43.3706 42.7936V46.1776C43.3706 46.5585 43.0449 46.8672 42.6433 46.8672H16.0979C15.6962 46.8672 15.3706 46.5585 15.3706 46.1776V42.7936C15.3706 39.2431 18.4065 36.3672 22.1511 36.3659C23.4751 36.3655 24.6408 35.7191 25.3115 34.7402C27.6528 36.6367 31.087 36.6378 33.4297 34.7402C34.1003 35.7191 35.2661 36.3655 36.5901 36.3659C40.3347 36.3672 43.3706 39.2431 43.3706 42.7936Z" fill="#323751"/>
<path d="M42.2594 13.4113C42.3016 13.4741 42.2897 13.5693 42.2358 13.6234C41.2725 14.5903 40.7343 15.8725 40.7343 17.2061V21.9098C40.7343 22.9776 39.8858 24.0251 38.3707 24.0251V18.7007C38.3707 16.4156 36.417 14.5633 34.007 14.5633H24.7343C22.3243 14.5633 20.3707 16.4156 20.3707 18.7007V24.0251C19.0748 24.0251 18.0979 23.0541 18.0979 21.9098V18.3275C18.0689 17.0802 18.1289 12.6816 21.4798 9.61905C25.3758 6.05819 31.551 6.34971 36.023 8.25482C36.1685 8.3168 36.1647 8.51427 36.0171 8.57185L34.8507 9.02714C34.6763 9.09524 34.713 9.33891 34.9005 9.35796L35.467 9.41563C38.1793 9.69034 40.6977 11.0867 42.2594 13.4113Z" fill="#42434D"/>
<path d="M38.3706 24.2941C38.3706 29.0087 34.339 32.8275 29.3706 32.8275C24.6895 32.8275 20.3706 29.377 20.3706 24.0243V18.6999C20.3706 16.4149 22.3242 14.5625 24.7342 14.5625H34.007C36.417 14.5625 38.3706 16.4149 38.3706 18.6999V24.2941Z" fill="#B7884E"/>
<path d="M36.7343 45.4026H34.5525C34.1508 45.4026 33.8252 45.0938 33.8252 44.713C33.8252 44.3322 34.1508 44.0234 34.5525 44.0234H36.7343C37.1359 44.0234 37.4616 44.3322 37.4616 44.713C37.4616 45.0938 37.136 45.4026 36.7343 45.4026Z" fill="white"/>
<path d="M27.3328 29.8048C28.8125 30.6826 27.6457 32.8351 26.0259 32.2187C22.6955 30.9512 20.3706 27.874 20.3706 24.2945V18.7003C20.3706 17.8311 20.6533 17.0245 21.1362 16.3585C21.7284 15.542 23.0979 15.9027 23.0979 16.9764V22.5705C23.0979 25.7176 24.8426 28.3276 27.3328 29.8048Z" fill="#BE8F55"/>
<path d="M32.928 33.6289C30.6883 34.5178 28.2269 34.5868 25.8135 33.6289C25.9367 33.1439 25.9162 32.8298 25.9162 32.2135L25.9298 32.1816C28.1191 33.0433 30.6181 33.045 32.8117 32.1816L32.8253 32.2135C32.8253 32.8301 32.8048 33.1441 32.928 33.6289Z" fill="#B7884E"/>
<path d="M25.8144 38.4481C25.4782 38.5484 25.1177 38.6036 24.7311 38.6068C20.977 38.6382 17.9161 41.4528 17.9161 45.0125V45.6605C17.9161 46.3269 17.3462 46.8672 16.6433 46.8672H16.0979C15.6962 46.8672 15.3706 46.5585 15.3706 46.1776V42.7936C15.3706 39.243 18.4065 36.3672 22.1511 36.3659C23.475 36.3655 24.6408 35.7191 25.3115 34.7402C25.5819 34.9592 25.8713 35.156 26.1762 35.3283C27.5174 36.086 27.3037 38.0041 25.8144 38.4481Z" fill="#5F82A6"/>
<path d="M32.9266 38.4481C33.2628 38.5484 33.6233 38.6036 34.0098 38.6068C37.764 38.6382 40.8249 41.4528 40.8249 45.0125V45.6605C40.8249 46.3269 41.3948 46.8672 42.0977 46.8672H42.6431C43.0448 46.8672 43.3704 46.5585 43.3704 46.1776V42.7936C43.3704 39.243 40.3345 36.3672 36.5899 36.3659C35.2659 36.3655 34.1002 35.7191 33.4295 34.7402C33.1591 34.9592 32.8697 35.156 32.5647 35.3283C31.2237 36.086 31.4373 38.0041 32.9266 38.4481Z" fill="#232842"/>
<path d="M36.017 8.57182C34.9481 8.98892 34.7957 9.08089 34.4254 9.02642C28.455 8.14894 23.2168 10.4912 21.4379 15.9899V15.9907C20.7725 16.7165 20.3707 17.6647 20.3707 18.7008V21.9351C20.3707 23.3305 18.0979 23.4276 18.0979 21.9098V18.3275C18.0689 17.0803 18.1289 12.6817 21.4798 9.6191C25.3761 6.05833 31.5506 6.34967 36.0234 8.25461C36.1688 8.31667 36.1643 8.51406 36.017 8.57182Z" fill="#4D4E59"/>
<defs>
<filter id="filter0_d" x="0.370605" y="0.867188" width="58" height="58" filterUnits="userSpaceOnUse" color-interpolation-filters="sRGB">
<feFlood flood-opacity="0" result="BackgroundImageFix"/>
<feColorMatrix in="SourceAlpha" type="matrix" values="0 0 0 0 0 0 0 0 0 0 0 0 0 0 0 0 0 0 127 0" result="hardAlpha"/>
<feOffset dy="2"/>
<feGaussianBlur stdDeviation="2"/>
<feColorMatrix type="matrix" values="0 0 0 0 0 0 0 0 0 0 0 0 0 0 0 0 0 0 0.25 0"/>
<feBlend mode="normal" in2="BackgroundImageFix" result="effect1_dropShadow"/>
<feBlend mode="normal" in="SourceGraphic" in2="effect1_dropShadow" result="shape"/>
</filter>
</defs>
</svg>
