<svg width="59" height="59" viewBox="0 0 59 59" fill="none" xmlns="http://www.w3.org/2000/svg">
<g filter="url(#filter0_d)">
<circle cx="29.3706" cy="27.8672" r="25" fill="white"/>
</g>
<path d="M43.8986 42.793V46.1775C43.8986 46.5586 43.5609 46.8672 43.1439 46.8672H15.5974C15.1804 46.8672 14.8427 46.5586 14.8427 46.1775V42.793C14.8427 40.1905 16.536 37.9482 18.9709 36.937C17.9774 36.2147 16.4632 35.2438 15.3615 33.1551C13.8271 30.2501 14.0898 26.823 16.0445 24.1405C17.1068 22.6836 17.6728 20.9732 17.6728 19.2232V15.4879C17.6728 10.7267 21.8963 6.86719 27.1066 6.86719H31.6348C36.845 6.86719 41.0685 10.7267 41.0685 15.4879C41.0685 19.4437 40.9628 20.2183 41.4845 21.7913C42.2208 24.0155 43.1934 24.2907 43.943 26.5543C45.1213 30.1124 43.8179 33.9928 40.6063 36.3293L39.7704 36.937C42.2053 37.9482 43.8986 40.1905 43.8986 42.793Z" fill="#FFDFBA"/>
<path d="M43.8987 42.7932V46.1777C43.8987 46.5585 43.5608 46.8673 43.144 46.8673H15.5975C15.1807 46.8673 14.8428 46.5585 14.8428 46.1777V42.7932C14.8428 39.2447 17.9907 36.3648 21.8775 36.3648C22.4558 36.3648 23.0049 36.2501 23.4982 36.0449L23.5218 36.0915L28.9088 39.9025C29.1808 40.0949 29.5607 40.0949 29.8328 39.9025L35.2197 36.0915L35.2433 36.0449C35.7367 36.2501 36.2857 36.3648 36.864 36.3648C40.7357 36.3648 43.8987 39.231 43.8987 42.7932Z" fill="#323751"/>
<path d="M37.9958 19.4762C38.3964 19.497 38.7101 19.7979 38.7101 20.1646V24.2927C38.7101 27.8505 36.3281 30.8996 32.9413 32.1806C26.8172 34.5037 20.0312 30.3769 20.0312 24.2927V20.2246C20.0312 19.8204 20.4101 19.501 20.8507 19.5375C25.3776 19.9125 29.8356 18.8679 33.579 16.5634C34.0047 16.3013 34.5909 16.4955 34.7254 16.9482C35.191 18.5167 36.4611 19.3962 37.9958 19.4762Z" fill="#FFEBD2"/>
<path d="M40.6061 36.3293L39.7703 36.937C38.8844 36.5698 37.9005 36.3646 36.8637 36.3646C34.7101 36.3646 32.9553 34.7754 32.9553 32.8008V32.212L32.9412 32.1801C36.3279 30.8991 38.7099 27.8499 38.7099 24.2922V20.1641C38.7099 19.7974 38.3962 19.4965 37.9956 19.4756C36.4703 19.3962 35.1939 18.5262 34.7252 16.9478C34.5908 16.495 34.0046 16.3009 33.5788 16.563C29.8379 18.8659 25.3802 19.9123 20.8505 19.537C20.4099 19.5006 20.0311 19.8199 20.0311 20.2242V24.2923C20.0311 27.85 22.4131 30.8992 25.7998 32.1802L25.7857 32.2121V32.8009C25.7857 34.7751 24.0314 36.3647 21.8773 36.3647C20.8405 36.3647 19.8566 36.5699 18.9707 36.9371L18.1349 36.3293C14.0774 33.3749 13.1739 28.0798 16.0444 24.1406C17.1066 22.6837 17.6726 20.9733 17.6726 19.2233V15.4879C17.6726 10.7268 21.8963 6.86719 27.1064 6.86719H31.6346C36.8447 6.86719 41.0684 10.7268 41.0684 15.4879V19.2232C41.0684 20.9712 41.6344 22.6836 42.6966 24.1405C45.5776 28.0941 44.6483 33.3886 40.6061 36.3293Z" fill="#42434D"/>
<path d="M33.0621 33.6271C30.7379 34.5162 28.1837 34.5851 25.6792 33.6271C25.8071 33.1421 25.7858 32.828 25.7858 32.2116L25.8 32.1797C28.0718 33.0414 30.665 33.0431 32.9413 32.1797L32.9555 32.2116C32.9555 32.8282 32.9341 33.1423 33.0621 33.6271Z" fill="#FFD6A6"/>
<path d="M35.8962 7.79495C36.8595 8.2415 36.4409 9.5852 35.3654 9.49219C35.0689 9.4665 34.7684 9.45339 34.4645 9.45339H29.9363C24.7262 9.45339 20.5025 13.313 20.5025 18.0741V19.123C20.5025 19.7424 20.0309 19.7224 20.0309 20.2241C20.0309 24.7777 20.051 24.4894 19.9779 24.6859C19.2379 26.6754 18.3491 26.9633 17.6281 29.1405C17.2354 30.3263 17.1193 31.5475 17.2554 32.7326C17.3664 33.6999 15.8926 34.1625 15.3612 33.1551C13.8377 30.2709 14.0763 26.8411 16.0442 24.1405C17.1064 22.6836 17.6724 20.9732 17.6724 19.2232V15.4879C17.6724 10.7268 21.8961 6.86719 27.1062 6.86719H31.6344C33.168 6.86719 34.6161 7.20158 35.8962 7.79495Z" fill="#4D4E59"/>
<path d="M27.5802 30.0084C28.9895 30.8705 27.9154 32.8645 26.3152 32.3513C22.7977 31.2233 20.0312 28.2234 20.0312 24.2912V20.2231C20.0312 19.8188 20.4105 19.4998 20.851 19.536C21.2125 19.566 21.6095 19.5896 22.0379 19.6016C22.8133 19.6232 23.4274 20.2083 23.4274 20.9171V22.912C23.4274 25.9142 25.1025 28.4928 27.5802 30.0084Z" fill="#FFF3E4"/>
<path d="M25.0777 37.1923C25.5255 37.509 25.2889 38.1731 24.7226 38.1751C20.7291 38.1887 17.6729 41.119 17.6729 44.6035V46.8673H15.5975C15.1807 46.8673 14.8428 46.5585 14.8428 46.1777V42.7932C14.8428 39.2447 17.9908 36.3648 21.8775 36.3648C22.4558 36.3648 23.0049 36.2501 23.4982 36.0449L23.5218 36.0915L25.0777 37.1923Z" fill="#5F82A6"/>
<path d="M33.6637 37.1923C33.216 37.509 33.4526 38.1731 34.0188 38.1751C38.0124 38.1887 41.0686 41.119 41.0686 44.6035V46.8673H43.144C43.5608 46.8673 43.8987 46.5585 43.8987 46.1777V42.7932C43.8987 39.2447 40.7506 36.3648 36.8639 36.3648C36.2856 36.3648 35.7366 36.2501 35.2432 36.0449L35.2196 36.0915L33.6637 37.1923Z" fill="#232842"/>
<defs>
<filter id="filter0_d" x="0.370605" y="0.867188" width="58" height="58" filterUnits="userSpaceOnUse" color-interpolation-filters="sRGB">
<feFlood flood-opacity="0" result="BackgroundImageFix"/>
<feColorMatrix in="SourceAlpha" type="matrix" values="0 0 0 0 0 0 0 0 0 0 0 0 0 0 0 0 0 0 127 0" result="hardAlpha"/>
<feOffset dy="2"/>
<feGaussianBlur stdDeviation="2"/>
<feColorMatrix type="matrix" values="0 0 0 0 0 0 0 0 0 0 0 0 0 0 0 0 0 0 0.25 0"/>
<feBlend mode="normal" in2="BackgroundImageFix" result="effect1_dropShadow"/>
<feBlend mode="normal" in="SourceGraphic" in2="effect1_dropShadow" result="shape"/>
</filter>
</defs>
</svg>
